<svg width="74" height="34" viewBox="0 0 74 34" fill="none" xmlns="http://www.w3.org/2000/svg">
<ellipse cx="37" cy="16.613" rx="37" ry="16.613" fill="#FBFCFB"/>
<path d="M35.5775 1.05616L35.6883 1.05339C45.7095 0.828923 61.9514 3.12002 69.4051 10.2709C69.9661 10.8091 70.527 11.4155 70.9694 12.055C71.8009 13.2581 72.4407 14.9066 72.468 16.3767C72.4787 16.9537 72.3769 17.5037 72.2321 18.0603C71.7963 19.7335 70.9263 21.0693 69.7363 22.308C68.8252 23.2567 67.7911 24.021 66.7011 24.7486C59.1692 29.7777 47.1777 31.557 38.2386 31.7316C33.5893 31.7728 28.9442 31.4416 24.3477 30.741C17.8732 29.7099 9.21483 27.2543 4.3494 22.6797C2.69341 21.1227 1.39516 18.9955 1.33017 16.6732C1.26456 14.3288 2.36209 12.3765 3.93949 10.7185C6.36425 8.16979 9.87439 6.34545 13.1257 5.08987C13.9066 4.78832 14.6751 4.46948 15.4704 4.20447C18.5331 3.18389 21.9321 2.41442 25.1217 1.93296C26.0627 1.79094 27.0061 1.69492 27.9508 1.58457C29.6832 1.36742 31.4227 1.21137 33.166 1.1167C33.9676 1.07631 34.7738 1.07636 35.5775 1.05616Z" fill="#065282"/>
<path d="M55.0992 9.93463C55.1038 9.66409 55.1092 8.83287 55.1669 8.59834C55.2802 8.53788 55.52 8.59091 55.6146 8.6319C56.3078 8.9327 58.3004 9.61139 58.8108 10.01C59.3807 10.6516 59.4019 11.0186 59.3947 11.8526C59.3904 12.3915 59.4183 12.9494 59.3893 13.4887C59.385 13.5826 59.3728 13.6759 59.3531 13.7678C59.7786 13.4351 60.9005 12.1214 61.1406 12.021C61.3148 11.8252 61.7919 11.1798 61.9754 11.1423C62.478 11.2052 63.6741 11.9258 64.1906 12.1443C64.3698 12.22 64.7118 12.5054 64.7006 12.7363L64.7376 12.8193C64.8881 13.1554 65.4028 13.3524 65.5086 13.667C65.1863 14.0181 64.8182 14.3465 64.468 14.6708C63.0741 15.9613 61.741 17.3104 60.4008 18.6563C60.1521 18.9063 59.7732 19.1028 59.5832 19.4017C59.1165 20.3931 58.8664 21.4678 58.5857 22.5211C58.3674 23.3117 57.9323 24.0645 57.8369 24.8916C57.2143 24.6291 56.5397 24.2147 56.025 24.0086C55.6591 23.944 55.2393 23.4942 54.863 23.3974C54.5515 23.3174 54.5246 23.7379 54.3457 23.8553C54.1214 23.9303 53.8357 23.9214 53.6031 23.8944C50.9628 23.5871 48.2645 23.4863 45.6311 23.1928C45.6314 23.4252 45.6232 23.6073 45.606 23.8391C44.1862 23.9073 42.5585 23.8001 41.1316 23.7421C40.6219 23.7213 40.7839 23.376 40.6326 23.1765C40.4265 23.0869 40.4222 23.0971 40.333 22.8984C40.2097 22.5403 40.0832 22.1835 39.9527 21.8279C39.7118 21.7302 39.6763 21.1073 39.4365 21.1041C38.825 21.0958 38.1014 21.1257 37.4949 21.132C37.3368 21.809 37.2053 22.4782 37.0752 23.1606C37.026 23.4166 36.9171 23.7334 36.9106 23.9817C36.4902 24.0302 35.9175 24.0088 35.4831 24.0055C34.8113 23.9999 34.1395 23.9993 33.4676 24.0037C33.5001 24.213 33.5482 24.4769 33.5703 24.6828C32.8171 24.6618 31.9693 24.5422 31.2448 24.3286C30.7727 24.1894 29.0331 24.0173 29.1291 23.3721C28.9178 23.1473 28.8351 23.2614 28.6885 22.9313C28.2685 22.2214 28.4443 20.2863 28.4939 19.4456C28.0883 19.3422 27.1625 19.2903 26.729 19.2907C26.6918 19.8641 26.6157 20.4968 26.5643 21.0785C26.4996 21.8104 26.458 22.9206 26.2972 23.6183C25.1841 23.5532 24.0464 23.3484 22.9517 23.1464C22.1389 22.9965 22.2413 22.7262 21.6143 22.3568C20.9371 23.0972 19.7229 23.6603 18.7878 23.9222C15.6616 24.7976 13.1001 23.7977 11.2614 21.1759C11.1399 21.0027 10.8642 20.6254 10.8725 20.4053C10.7671 20.1318 10.4887 19.6872 10.3592 19.4131C8.79669 16.1071 9.50854 11.5912 13.136 10.0107C14.5493 9.39503 16.753 9.0422 18.2339 9.55728C18.9392 9.71085 19.3809 9.97472 19.9764 10.3767C20.3858 10.3894 21.0588 11.4974 21.2436 11.8238C21.4969 12.0537 21.489 12.4098 21.6197 12.5237C21.8299 12.4355 21.8209 12.2058 22.0916 12.0972C22.1663 12.1335 22.1812 12.1572 22.2492 12.1494L22.3619 11.9323L22.3971 11.9218C22.4589 12.3709 22.3099 13.0873 22.44 13.2975L22.4956 13.3363C22.5564 13.2518 22.5426 12.1904 22.7658 11.9614C22.8327 11.4418 22.9853 10.094 23.1516 9.64886C24.2271 9.73943 25.168 9.89684 26.2543 10.0536C28.037 10.3109 30.0901 10.3912 31.751 11.1263C32.0406 11.2545 32.3685 11.5341 32.5841 11.7624C32.6337 11.8149 32.8155 12.0336 32.8505 12.0597C32.9561 12.0915 33.3181 12.519 33.3541 12.6161C33.5873 12.9702 33.7209 13.5058 33.8448 13.8722C34.3387 15.3337 33.7365 16.8409 32.3646 17.5547C32.2808 17.5983 32.1129 17.6964 32.0726 17.7797L32.0154 17.856L32.1285 18.0323L32.1639 18.0323L32.2528 17.9893C32.436 18.22 32.6221 18.4608 32.8154 18.6818C32.9521 18.6079 33.2979 18.4681 33.3893 18.6464C33.3012 18.6989 33.0837 18.6766 32.9508 18.6808C32.9597 18.7603 33.3205 18.9381 33.3237 18.9973C33.3328 19.1629 33.4282 19.2153 33.5336 19.333C33.7592 19.1075 33.4952 18.7855 33.8676 18.5706C34.2225 17.0756 34.7842 15.5617 35.2069 14.083C35.504 13.0438 35.7799 12.0203 36.1446 10.9989C36.259 10.6794 36.3153 10.3473 36.44 10.0242C36.778 9.87109 40.1763 9.88827 40.8147 9.84313C41.1796 10.0173 41.7477 11.7269 41.8918 12.1383C42.1503 13.3305 42.7173 14.545 43.0335 15.7289C43.1342 16.1062 43.3227 16.5793 43.3836 16.9584C43.6324 17.213 43.6087 17.5445 43.7475 17.8502C43.7955 17.9561 43.8614 17.9338 43.9722 17.9333C44.0141 18.01 44.0077 18.0271 44.0077 18.1179C44.5346 18.0611 44.9866 17.4005 45.3834 17.2569C45.5479 17.1783 46.4175 16.3797 46.6257 16.2036C47.2222 15.7038 47.8258 15.2127 48.4369 14.7304C48.4842 14.5238 49.181 13.9462 49.357 13.7969C48.8885 13.8226 48.2122 13.7892 47.72 13.7741C46.7329 13.7438 45.4805 13.8466 44.536 13.6289C44.4554 13.4091 44.4213 13.3199 44.3034 13.1129C44.1826 13.0509 44.1055 13.0186 44.0066 12.9239L44.0199 12.8401C43.9339 12.84 43.9385 12.839 43.8618 12.7974C43.7546 12.4839 44.0654 9.93632 44.2503 9.67335C44.9271 9.64696 46.3952 9.83373 47.1404 9.90889C48.9663 10.095 50.7965 10.2341 52.6292 10.3259C53.1726 10.3552 54.174 10.4519 54.6676 10.4273L54.8307 10.4026C54.9289 10.3118 55.0232 10.0738 55.0992 9.93463Z" fill="#F8E428"/>
<path d="M64.7006 12.7363L64.7376 12.8193C64.8881 13.1555 65.4028 13.3524 65.5086 13.667C65.1863 14.0181 64.8182 14.3466 64.468 14.6708C63.0741 15.9613 61.741 17.3104 60.4008 18.6563C60.1521 18.9063 59.7732 19.1028 59.5832 19.4017C59.1165 20.3931 58.8664 21.4679 58.5857 22.5211C58.3674 23.3117 57.9323 24.0646 57.8369 24.8916C57.2143 24.6292 56.5397 24.2147 56.025 24.0086C55.6591 23.944 55.2393 23.4942 54.863 23.3975C54.5515 23.3175 54.5246 23.7379 54.3457 23.8553C54.1214 23.9304 53.8357 23.9214 53.6031 23.8944C50.9628 23.5871 48.2645 23.4864 45.6311 23.1928C45.6314 23.4252 45.6232 23.6074 45.606 23.8391C44.1862 23.9073 42.5585 23.8002 41.1316 23.7421C40.6219 23.7214 40.7839 23.376 40.6326 23.1765C40.4265 23.0869 40.4222 23.0972 40.333 22.8984C41.9628 22.7957 43.4819 22.9627 45.0213 22.9088C44.9568 22.683 44.9099 22.4884 44.8593 22.2591C45.24 22.2649 45.8726 22.3204 46.2719 22.3434C47.6806 22.4212 49.0871 22.5364 50.49 22.6887C51.5037 22.7952 52.7371 22.9509 53.7393 22.9658C53.7296 22.685 53.7429 22.4367 53.7565 22.156C53.9877 22.3093 54.644 22.5837 54.9347 22.73C55.6745 23.1029 56.4197 23.5726 57.2161 23.7924C57.2874 23.5814 57.3649 23.2353 57.4387 22.9917L58.3068 20.0598C58.3728 19.8347 58.6678 18.794 58.7316 18.6866C59.0527 18.1466 59.984 17.4357 60.4546 16.954C61.8532 15.5223 63.3275 14.1906 64.7006 12.7363Z" fill="#1D1B15"/>
<path d="M54.5823 23.1697C55.0282 23.4013 55.635 23.6949 56.025 24.0086C55.659 23.944 55.2393 23.4942 54.863 23.3974C54.5515 23.3174 54.5246 23.7379 54.3457 23.8553C54.4067 23.6401 54.5067 23.3853 54.5823 23.1697Z" fill="#0F5066"/>
<path d="M16.8991 13.4011C16.9524 13.4823 17.003 13.5507 17.0608 13.6279L17.1202 13.6189C17.2192 13.9019 17.5221 14.6466 17.5836 14.8797L17.5425 14.9154C17.7217 15.7003 18.6687 15.464 19.2383 15.427C19.6465 15.4004 22.0639 14.9358 22.2467 15.0579C22.2427 15.1648 22.2383 15.2177 22.2565 15.326L22.3229 15.3945C22.321 15.6357 22.2344 16.0069 22.1739 16.2432C21.787 16.3675 21.1775 16.4996 20.7761 16.5524C20.2522 16.6047 19.7624 16.6501 19.2433 16.7392C19.0161 16.7567 18.8693 16.7729 18.6439 16.8122C18.5974 16.8326 18.5255 16.8515 18.523 16.8887C18.4907 17.349 18.8621 18.6021 18.9788 19.0094C18.1305 19.2972 17.4575 19.443 16.5784 19.5811C16.4166 19.6065 15.9867 19.7008 15.8469 19.7067C15.7747 19.6563 15.5687 19.6384 15.5532 19.5583C15.3404 18.4574 15.0385 17.379 14.7976 16.2846C14.6403 15.3638 14.4479 14.8634 14.3787 13.8983C15.0811 13.7228 16.1852 13.5167 16.8991 13.4011Z" fill="#065282"/>
<path d="M26.1132 18.2556C27.1615 18.3766 27.4207 18.3039 28.4898 18.6411C28.5088 18.8776 28.4969 19.2015 28.4939 19.4456C28.0883 19.3422 27.1625 19.2903 26.729 19.2907C26.6917 19.8641 26.6157 20.4968 26.5642 21.0785C26.4996 21.8104 26.458 22.9206 26.2972 23.6183C25.1841 23.5532 24.0464 23.3484 22.9517 23.1465C22.1389 22.9965 22.2413 22.7262 21.6143 22.3568C20.9371 23.0973 19.7229 23.6604 18.7878 23.9222C15.6616 24.7976 13.1001 23.7977 11.2614 21.1759C11.1399 21.0027 10.8642 20.6254 10.8725 20.4053C11.9921 22.0197 13.147 22.8234 15.1207 23.2184C16.6376 23.5219 18.7418 22.9436 19.9981 22.0707C20.8283 21.4938 21.2791 21.024 21.7515 20.1485C21.6467 20.5907 21.6403 20.7889 21.6406 21.2455C21.6386 21.5794 21.5983 21.8167 21.7776 22.0934C21.9526 22.2797 22.7417 22.2502 23.0376 22.2778C23.908 22.3664 24.7768 22.4698 25.6436 22.5882C25.7302 21.1555 26.04 19.6589 26.1132 18.2556Z" fill="#1D1B15"/>
<path d="M50.1115 19.7414C50.7054 19.6817 54.4701 15.5118 55.2067 14.7913C55.3519 15.2634 55.3311 15.4211 55.42 15.8765C55.4615 15.8376 55.4533 15.6726 55.4572 15.5957C55.5956 16.8265 55.6347 17.5176 55.0583 18.6392C54.9579 18.8347 54.797 19.291 54.6798 19.4623C54.4113 19.6468 54.3848 20.1425 54.0446 20.2869C53.9056 20.2575 53.9328 20.2501 53.8127 20.1408C53.6991 20.0729 50.5875 19.814 50.1115 19.7414Z" fill="#065282"/>
<path d="M36.8049 20.1157C37.6666 20.1113 38.5283 20.1192 39.3896 20.1393C39.5985 20.6948 39.7864 21.2581 39.9527 21.8278C39.7118 21.7301 39.6763 21.1073 39.4365 21.104C38.825 21.0957 38.1014 21.1256 37.4949 21.1319C37.3368 21.809 37.2053 22.4781 37.0751 23.1605C37.026 23.4166 36.9171 23.7333 36.9106 23.9816C36.4902 24.0301 35.9175 24.0088 35.4831 24.0055C34.8113 23.9998 34.1395 23.9992 33.4676 24.0037C33.5001 24.2129 33.5482 24.4768 33.5703 24.6827C32.8171 24.6618 31.9693 24.5421 31.2448 24.3285C30.7727 24.1894 29.0331 24.0172 29.1291 23.372C28.9178 23.1472 28.8351 23.2614 28.6885 22.9313C29.4077 23.2652 31.2835 23.3155 32.0702 23.6335C32.1907 23.6262 32.2464 23.6295 32.3583 23.5766C32.4312 23.4329 32.3819 23.4288 32.4327 23.3093C32.5045 23.3307 32.5262 23.344 32.5992 23.3243L32.5356 23.1807L32.7078 23.2551C32.8713 23.1897 32.786 23.1056 32.9513 22.9964C33.0888 22.9844 33.1561 23.0102 33.2887 23.0461C33.5017 23.0788 34.2429 23.0607 34.4732 23.0547L36.2117 23.0137C36.4292 22.1508 36.6597 21.0014 36.8049 20.1157Z" fill="#1D1B15"/>
<path d="M32.5356 23.1807L32.7078 23.2551C32.8713 23.1897 32.786 23.1056 32.9513 22.9964C33.0888 22.9844 33.1561 23.0102 33.2887 23.0461C33.1233 23.0512 33.0957 23.0224 32.9925 23.1057C32.9303 23.3296 33.0833 23.6119 33.1403 23.9014C32.793 23.816 32.4119 23.7304 32.0702 23.6335C32.1907 23.6262 32.2464 23.6294 32.3583 23.5765C32.4312 23.4329 32.3819 23.4288 32.4327 23.3092C32.5045 23.3307 32.5262 23.344 32.5992 23.3243L32.5356 23.1807Z" fill="#BDB52B"/>
<path d="M55.0992 9.93457C55.1185 11.3133 55.2641 12.6355 55.3268 14.0103C55.3487 14.4861 55.4562 15.153 55.4573 15.5958C55.4533 15.6726 55.4616 15.8376 55.42 15.8765C55.3311 15.4211 55.3519 15.2634 55.2067 14.7913C54.4701 15.5118 50.7055 19.6817 50.1115 19.7414C49.762 19.7188 48.7473 19.6822 48.4788 19.5752C48.4563 19.4554 49.1846 18.9717 49.3197 18.8638C50.9865 17.5313 52.5016 16.0236 53.969 14.4775C54.188 14.2466 54.3966 14.0134 54.554 13.7355C54.5762 12.7635 54.5873 11.3606 54.6676 10.4272L54.8307 10.4025C54.9289 10.3117 55.0232 10.0737 55.0992 9.93457Z" fill="#080705"/>
<path d="M44.0199 12.84C45.4515 12.8028 46.8831 12.7933 48.315 12.8114C49.0659 12.8219 49.9645 12.8773 50.6954 12.8672C50.3298 13.3079 49.9115 13.5225 49.4674 13.8635C49.1348 14.1189 48.7423 14.4442 48.4369 14.7303C48.4842 14.5236 49.181 13.9461 49.357 13.7968C48.8885 13.8225 48.2121 13.7891 47.72 13.774C46.7329 13.7436 45.4805 13.8464 44.536 13.6287C44.4554 13.409 44.4213 13.3197 44.3034 13.1127C44.1826 13.0507 44.1055 13.0185 44.0066 12.9238L44.0199 12.84Z" fill="#1D1B15"/>
<path d="M33.2047 12.7906C33.2557 12.6672 33.239 12.704 33.3541 12.616C33.5873 12.9701 33.7209 13.5057 33.8448 13.8721C34.3387 15.3336 33.7365 16.8408 32.3646 17.5546C32.2808 17.5982 32.1129 17.6963 32.0726 17.7796L32.0154 17.8559C31.659 17.6071 30.834 17.1474 30.4312 17.0083C30.5535 16.981 30.6753 16.9516 30.7966 16.9201C32.6695 16.4178 33.7074 14.663 33.2047 12.7906Z" fill="#050401"/>
<path d="M21.5958 13.1984C21.676 13.1754 21.7649 13.1304 21.8233 13.1728C22.0793 13.359 22.0053 13.8718 22.2762 14.053C22.3633 14.0653 22.4361 14.0756 22.4946 14.0838C22.4366 14.508 22.3881 14.9783 22.3229 15.3946L22.2565 15.3261C22.2383 15.2178 22.2427 15.1648 22.2467 15.0579C22.0639 14.9359 19.6465 15.4005 19.2383 15.4271C18.6687 15.4641 17.7217 15.7003 17.5425 14.9154L17.5836 14.8797C18.1899 14.4949 18.958 14.3954 19.6679 14.2687C20.3244 14.1695 21.0406 14.0433 21.6952 13.9706C21.6651 13.7128 21.632 13.4554 21.5958 13.1984Z" fill="#1D1B15"/>
<path d="M13.6073 13.0454C14.2487 12.7369 16.0801 12.3829 16.7907 12.3533C16.9221 12.8019 17.0243 13.1606 17.1202 13.6188L17.0608 13.6279C17.003 13.5507 16.9524 13.4823 16.8991 13.4011C16.1852 13.5167 15.0811 13.7227 14.3787 13.8982C14.4479 14.8634 14.6403 15.3637 14.7976 16.2846C14.7364 16.4202 14.5676 16.473 14.4271 16.5372C14.1492 15.4496 13.8564 14.1458 13.6073 13.0454Z" fill="#1D1B15"/>
<path d="M11.071 19.7813C11.1241 19.6493 11.0668 19.7041 11.0167 19.5136L11.0676 19.4519L11.1237 19.4631C11.1635 19.5472 11.191 19.6006 11.2395 19.68L11.2801 19.6207C11.7996 20.4209 12.3526 21.1434 13.1818 21.6395C14.2942 22.305 15.4383 22.5752 16.7313 22.4647C17.3391 22.412 17.9338 22.2575 18.4905 22.0079C19.9251 21.3757 20.4111 20.6996 21.3995 19.5278C21.4549 19.5616 21.5606 19.6216 21.6085 19.6574C21.5157 19.8522 21.3325 20.0802 21.1989 20.258C20.4043 21.3154 19.3998 21.9985 18.164 22.4409C16.5565 23.0162 14.9684 22.8704 13.4388 22.135C12.555 21.7138 11.8144 21.0423 11.3088 20.2037C11.2615 20.1256 11.0996 19.8584 11.071 19.7813Z" fill="#3A3009"/>
<path d="M58.8108 10.01C59.3807 10.6516 59.4019 11.0187 59.3947 11.8527C59.3904 12.3916 59.4183 12.9494 59.3893 13.4887C59.385 13.5826 59.3728 13.676 59.3531 13.7679L59.3424 13.9133C59.3617 13.9271 59.3918 13.9513 59.4122 13.9596C59.1789 14.3524 58.7122 14.5606 58.628 15.0896L58.6226 15.1259C58.5943 14.9777 58.6348 14.3344 58.6455 14.1394C58.7033 13.0971 58.5731 10.9522 58.8108 10.01Z" fill="#0E120A"/>
<path d="M41.8918 12.1382C42.1503 13.3304 42.7173 14.5449 43.0335 15.7288C43.1342 16.106 43.3227 16.5792 43.3836 16.9582L43.4471 17.1837C43.3822 17.1258 43.3629 17.1079 43.289 17.0628C43.2094 17.1154 43.2094 17.1584 43.1643 17.2555C43.1069 16.9824 42.8202 16.2242 42.7238 15.8969C42.3703 14.699 41.9227 13.4974 41.5714 12.3032C41.7427 12.2597 41.7571 12.2605 41.8918 12.1382Z" fill="#0E120A"/>
<path d="M14.7976 16.2847C15.0385 17.379 15.3404 18.4575 15.5532 19.5584C15.5687 19.6385 15.7747 19.6564 15.8469 19.7067C15.6257 19.7462 15.4438 19.8126 15.2316 19.8834C14.9005 18.9618 14.6853 17.5419 14.4271 16.5373C14.5676 16.4731 14.7364 16.4203 14.7976 16.2847Z" fill="#0E120A"/>
<path d="M21.2436 11.8237C21.4969 12.0536 21.489 12.4097 21.6197 12.5236C21.8299 12.4354 21.8209 12.2057 22.0916 12.0971C22.1663 12.1334 22.1812 12.1571 22.2492 12.1493L22.3619 11.9322L22.3971 11.9217C22.4589 12.3708 22.3098 13.0872 22.44 13.2974L22.4956 13.3362C22.5564 13.2517 22.5426 12.1903 22.7658 11.9613C22.6933 12.5511 22.5999 13.5185 22.4945 14.0837C22.4361 14.0754 22.3633 14.0651 22.2762 14.0528C22.0053 13.8717 22.0793 13.3588 21.8233 13.1726C21.7649 13.1302 21.676 13.1753 21.5958 13.1983C21.5551 12.9825 21.4736 12.695 21.4181 12.4767L21.4533 12.3863C21.4385 12.1955 21.3275 11.9999 21.2436 11.8237Z" fill="#204934"/>
<path d="M25.5585 17.7112C25.5363 17.5641 25.515 17.571 25.5616 17.4494C25.8002 17.2598 27.2799 17.5886 27.6353 17.6418C28.4841 17.7689 29.528 17.7169 29.2838 18.9111C29.2528 19.0739 29.2775 19.3087 29.2208 19.4801C29.1953 19.3166 29.2539 19.2864 29.1641 19.1739L28.9979 19.1582C28.9874 18.4227 29.2246 18.2123 28.23 18.0594C27.8384 17.9993 25.8385 17.5778 25.6205 17.7207L25.5585 17.7112Z" fill="#2D260A"/>
<path d="M10.5624 13.4451L10.8068 13.474C10.1542 15.3423 10.278 16.7854 10.8619 18.6227L10.5894 18.6474C10.038 17.0399 9.93504 15.0418 10.5624 13.4451Z" fill="#131517"/>
<path d="M32.8154 18.6818C32.9521 18.6079 33.2979 18.4681 33.3893 18.6463C33.3012 18.6989 33.0837 18.6766 32.9508 18.6808C32.9597 18.7603 33.3205 18.9381 33.3237 18.9973C33.3328 19.1629 33.4282 19.2152 33.5336 19.333C33.7592 19.1075 33.4952 18.7854 33.8676 18.5705C33.6274 19.3606 33.395 20.1874 33.1479 20.9692L33.1182 20.8919C33.0142 20.8373 32.853 20.8473 32.73 20.8454C32.7371 20.2643 32.8001 19.9561 32.7669 19.2945C32.8228 19.4216 32.7931 19.4056 32.8956 19.466L32.9401 19.4202C32.9957 19.2338 32.9814 19.086 32.9765 18.8937L32.8154 18.6818Z" fill="#2A4121"/>
<path d="M28.924 21.29C28.9303 21.394 28.9233 21.7526 28.9591 21.7983L28.991 21.7572L29.0698 21.7521L29.0689 21.7521L29.0715 21.8095L29.0983 21.768L29.0808 21.7498L29.1129 21.7289L29.0765 21.7125C29.1398 21.6703 29.12 21.6936 29.1392 21.5988C29.1366 21.8175 29.1312 22.0362 29.1228 22.2548C29.9722 22.3663 31.9454 22.5962 32.5356 23.1807L32.5991 23.3242C32.5262 23.344 32.5045 23.3306 32.4327 23.3092C31.8483 22.9268 29.1337 22.6689 28.9828 22.4602C28.8018 22.21 28.8865 21.5861 28.924 21.29Z" fill="#2D260A"/>
<path d="M22.1797 19.9011C22.2646 19.7707 22.2213 19.7276 22.3415 19.6475L22.4478 19.6842C22.4452 20.2643 22.4408 20.7726 22.4005 21.352C23.1283 21.4228 23.9211 21.5513 24.6498 21.6556C24.6127 21.7868 24.6226 21.8698 24.4906 21.9289C23.9657 21.8761 22.5383 21.638 22.1166 21.6864L22.1323 21.337C22.1629 21.0826 22.1152 20.0527 22.1797 19.9011Z" fill="#2C1C13"/>
<path d="M14.4278 9.95117L14.4542 10.0152C14.0234 10.1701 13.6673 10.4251 13.2774 10.6461C12.1959 11.2591 11.2304 12.2847 10.8068 13.4741L10.5624 13.4452C10.6187 13.2965 10.6811 13.1502 10.7497 13.0067C11.5519 11.3423 12.7061 10.5495 14.4278 9.95117Z" fill="#1D1B15"/>
<path d="M18.2339 9.55713C18.9392 9.7107 19.3809 9.97457 19.9764 10.3766C20.3858 10.3892 21.0588 11.4972 21.2436 11.8237C21.3275 11.9999 21.4385 12.1954 21.4533 12.3862L21.4181 12.4767C21.4736 12.695 21.5551 12.9825 21.5958 13.1982C21.632 13.4552 21.6651 13.7126 21.6952 13.9704C21.0406 14.0431 20.3244 14.1693 19.6679 14.2685C19.9342 14.0494 21.056 14.0854 21.2618 13.9316C21.3452 13.9367 21.382 13.9347 21.4653 13.9267C21.4305 13.9045 21.3437 13.8322 21.3434 13.7836C21.342 13.5374 21.465 12.954 21.4127 12.7226C21.251 12.0069 20.7612 11.2666 20.2807 10.7208C19.8993 10.4279 19.4679 10.1414 19.0642 9.87955C18.8703 9.7538 18.446 9.75398 18.2339 9.55713Z" fill="#F1E12A"/>
<path d="M19.9764 10.3767C20.3858 10.3893 21.0588 11.4974 21.2436 11.8238C21.3275 12 21.4385 12.1955 21.4533 12.3864L21.4181 12.4768C21.1436 11.6555 20.644 10.9279 19.9764 10.3767Z" fill="#0E120A"/>
<path d="M43.3836 16.9583C43.6324 17.2129 43.6087 17.5444 43.7475 17.8501C43.7955 17.956 43.8614 17.9337 43.9722 17.9332C44.0141 18.0098 44.0077 18.027 44.0077 18.1178C44.5346 18.061 44.9866 17.4004 45.3834 17.2568C45.0368 17.6173 44.7729 17.8164 44.3715 18.1209C43.9905 18.4507 43.922 18.355 43.7184 18.9139C43.4962 18.5222 43.3517 17.7486 43.1643 17.2555C43.2094 17.1584 43.2094 17.1154 43.289 17.0628C43.3628 17.1079 43.3822 17.1258 43.4471 17.1838L43.3836 16.9583Z" fill="#101309"/>
<path d="M43.3836 16.9583C43.6324 17.2129 43.6087 17.5444 43.7475 17.8501C43.7955 17.956 43.8614 17.9337 43.9722 17.9332C44.0141 18.0098 44.0077 18.027 44.0077 18.1178C44.5346 18.061 44.9866 17.4004 45.3834 17.2568C45.0368 17.6173 44.7729 17.8164 44.3715 18.1209C44.1848 18.0894 43.9493 18.274 43.7829 18.3785L43.7822 18.3508C43.7661 17.9516 43.5898 17.5563 43.4471 17.1838L43.3836 16.9583Z" fill="#204934"/>
<path d="M32.1285 18.0323L32.1639 18.0322L32.2528 17.9893C32.436 18.2199 32.6221 18.4608 32.8154 18.6818L32.9765 18.8937C32.9814 19.086 32.9957 19.2338 32.9401 19.4201L32.8956 19.466C32.7931 19.4056 32.8228 19.4216 32.7669 19.2945C32.8001 19.9561 32.7371 20.2643 32.73 20.8454C32.6892 21.2532 32.6546 21.5917 32.6501 22.0032C32.5194 21.5944 32.7414 20.6758 32.6268 20.502C32.5668 20.5731 32.5778 20.5868 32.5105 20.5948C32.4699 20.3893 32.5366 19.5434 32.5518 19.279C32.5936 19.2155 32.6173 19.1931 32.6801 19.1505C32.6909 18.7792 32.1471 18.2198 32.1285 18.0323Z" fill="#F1E12A"/>
<path d="M32.1639 18.0322L32.2528 17.9893C32.436 18.2199 32.6221 18.4608 32.8154 18.6818L32.9765 18.8937C32.9814 19.086 32.9957 19.2338 32.9401 19.4201L32.8956 19.466C32.7931 19.4056 32.8228 19.4216 32.7669 19.2945C32.7617 18.8468 32.4371 18.3681 32.1639 18.0322Z" fill="#1D1B15"/>
<path d="M40.8147 9.84302C41.1796 10.0172 41.7477 11.7268 41.8918 12.1382C41.7571 12.2605 41.7427 12.2597 41.5714 12.3032C41.4631 11.9456 40.8212 10.0436 40.8147 9.84302Z" fill="#1D1B15"/>
<path d="M28.9979 19.1582L29.1641 19.1739C29.2539 19.2865 29.1953 19.3166 29.2208 19.4801C29.1977 20.1837 29.1558 20.8974 29.1392 21.5988C29.12 21.6936 29.1398 21.6704 29.0765 21.7125L29.1129 21.729L29.0808 21.7499L29.0983 21.7681L29.0715 21.8096L29.0689 21.7522L29.0698 21.7522L28.991 21.7573L28.9591 21.7983C28.9233 21.7527 28.9303 21.3941 28.924 21.2901C28.9145 20.6567 28.9788 19.8114 28.9979 19.1582Z" fill="#1D1B15"/>
<path d="M53.8127 20.1409C53.9328 20.2502 53.9056 20.2576 54.0447 20.287C54.3848 20.1426 54.4113 19.6469 54.6798 19.4624C54.4379 20.0104 54.1913 20.5393 54.0242 21.1182C53.9654 21.322 53.9762 21.8183 53.8995 21.9289C53.6439 21.5004 53.8285 20.6827 53.8127 20.1409Z" fill="#192016"/>
<path d="M32.73 20.8455C32.853 20.8474 33.0142 20.8374 33.1182 20.892L33.1479 20.9693C33.0898 21.1996 32.8355 22.4486 32.7823 22.5381L32.7379 22.5264C32.6509 22.3677 32.6588 22.1854 32.6501 22.0033C32.6546 21.5918 32.6892 21.2533 32.73 20.8455Z" fill="#1D1B15"/>
<path d="M18.8988 17.0803L19.1501 17.1181C19.3382 17.2097 19.3269 17.2772 19.4044 17.4937C19.4661 17.6664 19.5831 18.0707 19.5978 18.2435C19.5112 18.3995 19.5822 18.3443 19.5833 18.575C19.5115 18.5992 19.513 18.5958 19.4421 18.5831L19.3937 18.3597L19.3346 18.3308C19.211 17.8216 19.1282 17.5489 18.8988 17.0803Z" fill="#2D260A"/>
<path d="M19.2433 16.7391C19.7624 16.65 20.2522 16.6046 20.7761 16.5522C20.5965 16.8631 20.3873 16.7685 20.0698 16.8805C19.9047 16.9371 19.852 16.9544 19.6803 16.9748C19.6366 16.9676 19.593 16.9597 19.5496 16.9513C19.3536 16.9124 19.3402 16.8838 19.2433 16.7391Z" fill="#EEE66A"/>
<path d="M21.6406 21.2455C21.8114 21.2248 21.9725 21.274 22.1323 21.3371L22.1166 21.6865L22.3092 21.6997L22.3107 21.7016C22.0296 21.773 21.9119 21.8128 21.7776 22.0935C21.5983 21.8167 21.6386 21.5795 21.6406 21.2455Z" fill="#F1E12A"/>
<path d="M59.3531 13.7678C59.7786 13.4351 60.9005 12.1214 61.1406 12.021C60.6514 12.6384 59.9693 13.399 59.4122 13.9595C59.3918 13.9512 59.3617 13.927 59.3424 13.9132L59.3531 13.7678Z" fill="#1D1B15"/>
<path d="M10.8619 18.6228C11.0008 18.9935 11.1031 19.2645 11.2802 19.6208L11.2395 19.6801C11.191 19.6007 11.1635 19.5474 11.1237 19.4632L11.0676 19.452L11.0167 19.5137C11.0668 19.7042 11.1241 19.6494 11.071 19.7814C10.8187 19.3471 10.7483 19.1329 10.5894 18.6475L10.8619 18.6228Z" fill="#1D1B15"/>
<path d="M18.6439 16.8123C18.8694 16.773 19.0161 16.7567 19.2433 16.7393C19.3402 16.8839 19.3536 16.9126 19.5496 16.9514C19.593 16.9599 19.6366 16.9677 19.6803 16.9749C19.5963 16.9847 19.3849 17.0034 19.3187 17.0311L19.1501 17.1182L18.8988 17.0804C18.8286 16.935 18.7875 17.07 18.6439 16.8123Z" fill="#F1E12A"/>
<path d="M19.3346 18.331L19.3937 18.3599L19.4421 18.5833C19.513 18.5959 19.5115 18.5993 19.5833 18.5751C19.5822 18.3444 19.5112 18.3996 19.5978 18.2437C19.6658 18.5051 19.6929 18.7023 19.7311 18.9699C19.6655 19.1578 19.6928 19.1988 19.4808 19.2426C19.4596 18.9856 19.378 18.602 19.3346 18.331Z" fill="#242015"/>
<path d="M21.7643 19.1858C21.9499 19.2179 22.269 19.2363 22.3942 19.3252C22.4688 19.4526 22.4442 19.52 22.4478 19.6843L22.3415 19.6475C22.2213 19.7276 22.2646 19.7707 22.1797 19.9012C22.1917 19.7783 22.2255 19.6068 22.1646 19.507C22.0751 19.4271 21.928 19.4428 21.8025 19.4399C21.7882 19.3808 21.7738 19.2516 21.7643 19.1858Z" fill="#1D1B15"/>
<path d="M24.6498 21.6555C24.891 21.6833 25.0568 21.6833 25.2469 21.8447L25.2732 21.9182C25.12 22.0936 24.7074 21.9722 24.4906 21.9289C24.6226 21.8698 24.6127 21.7868 24.6498 21.6555Z" fill="#55551D"/>
<path d="M19.7311 18.9697C19.7621 19.2383 19.8204 19.8548 19.3241 19.6196L19.2989 19.5603C19.4347 19.3999 19.4859 19.4784 19.4808 19.2424C19.6928 19.1986 19.6655 19.1576 19.7311 18.9697Z" fill="#2D260A"/>
<path d="M19.6803 16.9748C19.852 16.9544 19.9047 16.9372 20.0698 16.8806C20.0693 16.9196 20.0689 16.9529 20.0698 16.9919C19.99 17.0017 19.9719 16.988 19.9324 17.0332L19.9781 17.037C19.718 17.1149 19.6617 17.1151 19.3957 17.1063C19.3558 17.0735 19.3463 17.0718 19.3187 17.031C19.3849 17.0033 19.5963 16.9846 19.6803 16.9748Z" fill="#BDB52B"/>
<path d="M21.3995 19.5278C21.5346 19.3739 21.6039 19.3162 21.7643 19.1858C21.7738 19.2516 21.7882 19.3808 21.8025 19.4399C21.7489 19.4996 21.6553 19.5979 21.6085 19.6574C21.5606 19.6217 21.4549 19.5617 21.3995 19.5278Z" fill="#2C1C13"/>
<path d="M32.8505 12.0596C32.9561 12.0914 33.3182 12.5189 33.3541 12.616C33.239 12.704 33.2557 12.6672 33.2047 12.7906C33.107 12.5058 33.0026 12.3153 32.8505 12.0596Z" fill="#001525"/>
<path d="M25.5585 17.7112L25.6205 17.7207C25.6381 17.8787 25.6789 18.0583 25.5895 18.1863L25.5269 18.1934C25.4155 18.0306 25.498 17.8809 25.5585 17.7112Z" fill="#1D1B15"/>
<path d="M14.4278 9.95105C14.5348 9.90695 14.6088 9.86277 14.7211 9.87697C14.6691 9.9531 14.5485 9.98049 14.4542 10.0151L14.4278 9.95105Z" fill="#837A19"/>
<path d="M25.7794 12.6802C26.5968 12.8066 27.4017 12.937 28.2094 13.1171C28.3892 13.1572 28.5689 13.1899 28.7521 13.211C28.7649 13.5803 28.5497 15.1247 28.4031 15.4279L28.385 15.4599C28.1939 15.5433 26.3734 15.2779 26.1088 15.183C25.9035 15.1722 25.7662 15.1684 25.5575 15.1785C25.6085 14.3072 25.7036 13.5361 25.7794 12.6802Z" fill="#1D1B15"/>
<path d="M26.4673 13.7507C27.114 13.8501 27.7994 13.9107 28.4363 14.0386C28.7002 14.0915 28.3685 15.1961 28.4032 15.4277L28.385 15.4597C28.194 15.5432 26.3734 15.2777 26.1089 15.1828C26.3453 15.0147 26.4094 14.0678 26.4673 13.7507Z" fill="#1A4B59"/>
<path d="M55.6232 10.2367C55.6315 10.0973 55.6082 9.98177 55.692 9.88079C55.7924 9.85032 55.8078 9.85634 55.91 9.88542L55.9204 9.92171C55.9788 10.0003 56.2297 11.318 56.3727 11.5499C56.4387 11.6574 56.234 12.5593 56.2103 12.7867C56.1469 13.3872 56.4354 15.6171 56.2838 16.0465C56.2845 16.325 56.3021 16.5881 56.3193 16.8658C56.3179 17.7891 55.8049 18.7142 55.4838 19.5674C55.3899 19.816 55.2443 20.2068 55.1253 20.4344C55.0917 20.3816 54.9762 20.2885 54.9239 20.2429C55.1755 19.6143 55.9028 18.0119 56.0322 17.4604C56.1512 16.9542 55.9555 14.8775 55.9085 14.2376L55.6232 10.2367Z" fill="#1D1803"/>
<path d="M55.9204 9.92188C55.9788 10.0005 56.2297 11.3181 56.3727 11.5501C56.4387 11.6576 56.234 12.5595 56.2103 12.7869C56.1469 13.3874 56.4354 15.6173 56.2838 16.0467C56.2071 14.0421 55.9763 11.9198 55.9204 9.92188Z" fill="#F1E12A"/>
<path d="M38.1189 14.406C38.3114 14.4189 38.3684 14.4247 38.5526 14.4775C38.6738 14.8907 38.7573 15.2462 38.8519 15.665C39.0093 16.2076 39.2602 16.9724 39.3871 17.4958C38.9322 17.3418 38.382 17.3937 37.896 17.403C37.749 17.4251 37.5092 17.437 37.354 17.4498C37.5375 17.0588 38.0272 14.9018 38.1189 14.406Z" fill="#1D1B15"/>
<path d="M38.8519 15.665C39.0093 16.2076 39.2602 16.9724 39.3871 17.4958C38.9322 17.3418 38.382 17.3937 37.896 17.403C37.9264 17.3312 38.1816 16.9815 38.2691 16.8217C38.4781 16.4392 38.6042 16.0027 38.8519 15.665Z" fill="#193B28"/>
<path d="M44.5909 12.053C45.1332 11.8435 49.0129 12.0401 49.8266 12.0549C50.1592 12.0609 50.9438 12.1577 51.3417 12.1578C51.4632 12.4171 51.5005 12.5094 51.5721 12.7862C51.4847 12.9603 51.4488 13.0393 51.3281 13.1895C51.2266 13.1831 51.1818 13.1639 51.0868 13.1331C51.2245 12.937 51.3542 12.747 51.1997 12.5276C50.7578 12.2981 45.5923 12.298 44.6647 12.2885C44.7224 12.1797 44.6077 12.311 44.5909 12.053Z" fill="#3A3009"/>
<path d="M25.1864 11.8392C26.1466 11.7842 27.8447 12.284 28.8449 12.4144C29.0996 12.4476 29.5299 12.6634 29.5246 12.991C29.521 13.2129 29.3514 16.7481 28.6412 15.9019L28.6857 15.8636C28.7635 15.8099 28.8382 15.7503 28.8839 15.6656C29.0015 15.4476 29.2562 13.1727 29.1965 12.9651C29.1714 12.8775 29.1423 12.8481 29.0632 12.8072C28.7689 12.6552 25.6046 12.0947 25.3486 12.1737C25.2589 12.2693 25.2501 12.4721 25.1927 12.6325L25.131 12.6554L25.0883 12.6065C25.0676 12.4171 25.1123 12.0147 25.1864 11.8392Z" fill="#2D260A"/>
<path d="M58.1832 18.5774C58.1713 18.533 58.1599 18.4885 58.1491 18.4439C58.1237 18.3361 58.1075 18.2504 58.1774 18.1596C58.5509 17.6758 59.0624 17.2276 59.5011 16.8078L61.2704 15.0937C61.7643 14.6174 62.2536 14.1358 62.7375 13.6493C63.0285 13.3549 63.3135 13.0529 63.6092 12.7641C63.7389 12.6373 63.9006 12.5115 64.0687 12.6285C64.049 12.8095 62.4289 14.3553 62.1747 14.6023L59.3771 17.3401C59.2008 17.5102 58.3316 18.3078 58.2828 18.42C58.2484 18.4903 58.2384 18.5237 58.1832 18.5774Z" fill="#3A3009"/>
<path d="M54.3067 13.4409L54.3479 13.456L54.3551 13.5115C54.3242 13.5507 54.292 13.5886 54.2579 13.6251C54.1995 13.6873 54.1067 13.7707 54.0407 13.825C53.2984 14.4389 52.6686 15.1514 51.9793 15.8171C51.0786 16.6733 50.1574 17.5079 49.2169 18.3203C48.8133 18.668 48.3792 19.0552 47.9365 19.3526C47.8749 19.394 47.6225 19.3949 47.5333 19.3975L47.4792 19.359C47.5035 19.3129 49.3377 17.841 49.5179 17.6926C50.3065 17.036 51.0685 16.3479 51.8023 15.6299C52.417 15.0366 53.0382 14.3632 53.674 13.8026C53.7536 13.7324 54.1898 13.5025 54.3067 13.4409Z" fill="#3E2F0E"/>
<path d="M56.3193 16.866C56.4662 17.3882 56.2809 17.4208 56.3078 17.6716C56.348 18.047 56.5526 18.1075 56.2573 18.6858C56.1182 18.9578 55.8906 19.0381 55.7099 19.2808C55.4809 19.5883 55.4246 20.0659 55.2949 20.3761C55.1644 20.6879 55.0744 20.6157 54.9486 21.0321C54.8949 21.1783 54.8296 21.3011 54.8802 21.4469L54.8888 21.4065L54.8952 21.4378C55.0156 22.0044 55.7361 22.0665 56.1157 22.3682L56.1282 22.4281C56.2322 22.4888 56.3505 22.5616 56.4566 22.6144C56.6716 22.7014 56.9788 22.8336 57.0688 23.0667L57.0358 23.115C56.7913 23.1322 56.5336 22.9743 56.3096 22.8643C56.0279 22.7781 54.8454 22.1391 54.5662 21.9703C54.4576 21.9204 54.431 21.912 54.3504 21.8196C54.3518 21.6915 54.8504 20.4395 54.9239 20.243C54.9762 20.2887 55.0916 20.3818 55.1253 20.4345C55.2443 20.2069 55.3899 19.8162 55.4838 19.5675C55.8049 18.7144 56.3179 17.7892 56.3193 16.866Z" fill="#F1E12A"/>
<path d="M54.7371 21.7527C55.0045 21.762 55.773 22.3572 56.1282 22.4281C56.2322 22.4887 56.3505 22.5615 56.4566 22.6143C56.6716 22.7014 56.9788 22.8335 57.0688 23.0666L57.0358 23.1149C56.7914 23.1321 56.5336 22.9742 56.3096 22.8642C56.0279 22.778 54.8454 22.139 54.5662 21.9703L54.6303 21.9302L54.5583 21.8932L54.5569 21.8377C54.6465 21.826 54.6708 21.8137 54.7371 21.7527Z" fill="#2C1C13"/>
<path d="M56.4566 22.6143C56.6716 22.7014 56.9788 22.8335 57.0688 23.0666L57.0358 23.1149C56.7914 23.1321 56.5336 22.9742 56.3096 22.8642C56.424 22.8531 56.4745 22.8916 56.5587 22.8375C56.5175 22.7438 56.4677 22.705 56.4566 22.6143Z" fill="#3E3B3A"/>
<path d="M54.9239 20.2429C54.9762 20.2886 55.0916 20.3816 55.1253 20.4344C55.0497 20.5959 54.9544 20.7866 54.8974 20.9526C54.8293 21.1607 54.6422 21.5717 54.7371 21.7527C54.6708 21.8137 54.6465 21.8259 54.5568 21.8377L54.5583 21.8932L54.6303 21.9302L54.5662 21.9702C54.4576 21.9202 54.431 21.9119 54.3504 21.8195C54.3518 21.6914 54.8504 20.4394 54.9239 20.2429Z" fill="#1D1B15"/>
<path d="M51.0868 13.1331C51.1818 13.1639 51.2266 13.1831 51.328 13.1895C50.9184 13.6994 50.0312 14.3507 49.4893 14.7813C48.7577 15.3676 48.0304 15.9595 47.3078 16.5572C46.6479 17.123 45.9934 17.6951 45.3443 18.2733C45.131 18.4607 44.4536 19.0613 44.2346 19.1812L44.0912 19.0473C45.5697 17.6708 47.2422 16.3322 48.7978 15.0378C49.4652 14.4825 50.5624 13.7538 51.0868 13.1331Z" fill="#0A0807"/>
<path d="M16.9536 11.6688C16.3132 11.901 13.7474 12.255 13.2692 12.5748C13.1958 12.677 13.1968 12.7563 13.1834 12.8796C12.9092 12.7461 12.9541 12.2378 13.3629 12.164C14.5673 11.9466 15.8542 11.4876 17.0727 11.4087C17.549 11.8138 17.7041 12.6017 17.795 13.204C17.7133 13.3175 17.8479 13.7773 17.8935 13.9242L18.0324 13.8827L18.0642 13.9317C18.0284 14.0569 17.9891 14.0894 17.8629 14.1591C17.8329 14.1755 17.8025 14.1915 17.772 14.2071C17.5428 13.4233 17.3961 12.3212 16.9536 11.6688Z" fill="#3A3009"/>
<path d="M35.5358 14.7109L35.5816 14.7498L35.6995 14.7262L35.7735 14.7895L34.6113 18.7873C34.5088 19.1379 34.1586 20.4096 34.0341 20.6985C33.9983 20.703 33.9058 20.7427 33.8666 20.758C33.863 20.671 33.8595 20.636 33.8241 20.5564C33.8484 20.4095 34.0036 19.8978 34.0525 19.7139C34.2962 18.8048 34.5577 17.9006 34.8367 17.0018C34.9985 16.4625 35.3456 15.1699 35.5358 14.7109Z" fill="#242015"/>
<path d="M23.43 10.748L23.6787 10.8292L23.186 14.8672C23.1013 15.5343 23.0209 16.2118 22.9144 16.8756C22.8857 17.054 22.8774 17.0735 22.7519 17.1605L22.6928 17.1422C22.6022 16.9738 22.7517 16.1374 22.7849 15.905C23.0257 14.2148 23.1667 12.4269 23.43 10.748Z" fill="#242015"/>
<path d="M47.9233 21.6643C49.0814 21.7425 50.2384 21.8344 51.394 21.94C51.8456 21.9809 52.6647 22.0934 53.0944 22.0891C53.1622 22.2553 53.2353 22.4265 53.2934 22.5958C52.7769 22.318 51.836 22.3134 51.2345 22.2456C50.4556 22.1578 49.6549 22.1077 48.8742 22.0279C48.5247 21.9967 47.9892 21.9849 47.6612 21.9132C47.7738 21.9088 47.8265 21.9124 47.9355 21.8772C47.9813 21.7742 47.963 21.7926 47.9233 21.6643Z" fill="#3A3009"/>
<path d="M31.4989 18.1956L31.5518 18.2363C31.5597 18.3449 31.5592 18.3762 31.5973 18.4774C31.737 18.5331 31.7724 18.5486 31.8933 18.6398L31.9207 18.6607C31.9262 18.5408 31.9346 18.4646 31.9519 18.3462L31.9835 18.3438C32.0318 18.5239 32.0285 18.6412 32.0329 18.825L32.0212 18.8004C32.0177 19.4544 32.0526 20.9407 31.8502 21.5039C31.8139 21.543 31.7983 21.544 31.7488 21.5639C31.7343 21.4737 31.6974 21.3597 31.6717 21.2698L31.6626 21.28C31.5209 20.693 31.7452 20.1825 31.628 19.6171C31.5735 19.3544 31.2577 18.9571 31.1511 18.6708C31.2406 18.6789 31.2023 18.6892 31.273 18.6554C31.2546 18.5456 31.2523 18.4891 31.2493 18.3809L31.2872 18.3539C31.3221 18.3936 31.3555 18.4321 31.3924 18.47C31.4891 18.3619 31.3699 18.4163 31.4989 18.1956Z" fill="#F1E12A"/>
<path d="M40.8111 22.0568C41.6768 22.0103 43.2431 21.9662 44.1346 22.1659C44.1407 22.1673 44.835 22.539 44.8629 22.558C43.8464 22.3894 41.9961 22.2844 40.9427 22.3562C40.8764 22.2956 40.842 22.1498 40.8111 22.0568Z" fill="#3A3009"/>
<path d="M17.795 13.2041C17.8609 13.3726 17.8961 13.6376 17.9278 13.8223C18.3478 13.7124 20.8925 13.1912 21.1469 13.3073C21.2112 13.4105 21.2115 13.4254 21.2015 13.5472C21.1859 13.564 21.1703 13.5807 21.1547 13.5974C20.0989 13.7423 18.7997 13.7731 17.8315 14.2489L17.772 14.2071C17.8025 14.1916 17.8329 14.1756 17.8629 14.1591C17.9891 14.0895 18.0284 14.0569 18.0642 13.9317L18.0324 13.8828L17.8935 13.9243C17.848 13.7774 17.7133 13.3176 17.795 13.2041Z" fill="#2D260A"/>
<path d="M59.0975 15.0263C59.5198 14.6097 59.8843 14.1592 60.27 13.711L61.631 12.1475L61.7654 12.2838L61.7009 12.4774C61.1818 13.1045 59.7653 14.7752 59.1914 15.2324C59.1739 15.1256 59.1753 15.0985 59.0975 15.0263Z" fill="#242015"/>
<path d="M39.3652 15.4607C39.1484 14.6559 38.8731 13.6323 38.5978 12.8287C38.567 12.7385 38.4799 12.7138 38.4024 12.6924C38.2032 12.7543 38.1401 13.0705 38.0096 13.2692L37.9698 13.2443C37.744 12.4909 38.2687 12.4947 38.8204 12.5403C38.8799 12.7725 38.9329 12.9948 39.0089 13.2229C39.2383 13.9122 39.401 14.6206 39.5953 15.3215L39.5269 15.3456L39.443 15.2289C39.386 15.2813 39.3806 15.3798 39.3652 15.4607Z" fill="#1D1B15"/>
<path d="M35.5058 22.5143C35.0969 22.5132 33.3784 22.5401 33.094 22.4715L33.0787 22.3797C33.144 22.2537 33.3363 22.1887 33.4716 22.126L33.5268 22.18L33.5146 22.2255C33.6273 22.2512 33.6869 22.2365 33.799 22.2211C34.2286 22.1554 35.4414 22.1029 35.8582 22.2184C35.9177 22.3156 35.9024 22.2728 35.8895 22.4137C35.7717 22.5805 35.7066 22.532 35.5058 22.5143Z" fill="#55551D"/>
<path d="M33.799 22.2212C34.2286 22.1555 35.4414 22.103 35.8583 22.2185C35.9177 22.3157 35.9024 22.2729 35.8895 22.4138C35.7717 22.5806 35.7066 22.5321 35.5058 22.5144C35.3243 22.3733 34.1825 22.2973 33.799 22.2212Z" fill="#837A19"/>
<path d="M32.455 14.8772L32.6144 15.0026C32.4293 15.334 32.0344 15.7768 31.6942 15.9568C31.3908 16.1173 29.9525 16.6804 29.6782 16.46C29.6656 16.2317 30.1493 16.164 30.3355 16.1185C31.2019 15.9071 31.9482 15.6666 32.455 14.8772Z" fill="#3A3009"/>
<path d="M39.3652 15.4608C39.3806 15.3799 39.386 15.2814 39.443 15.229L39.5269 15.3456L39.5953 15.3215C39.7197 15.6693 40.2556 17.4115 40.2125 17.674C40.0889 17.7679 39.8652 17.7534 39.7082 17.7551L39.9305 17.4697C39.8057 16.9921 39.4358 15.8657 39.3652 15.4608Z" fill="#2C1C13"/>
<path d="M37.3698 19.3196C38.0669 19.3199 38.7645 19.3336 39.4613 19.3607C39.4881 19.5142 39.5071 19.4784 39.438 19.5805C39.2688 19.6378 39.1638 19.5938 38.9817 19.6191C38.6702 19.6266 38.3293 19.6138 38.0153 19.608C37.7798 19.5571 37.4673 19.6575 37.3375 19.4932L37.3698 19.3196Z" fill="#1D1B15"/>
<path d="M39.4613 19.3608L39.9437 19.3784C40.1602 19.8848 40.3419 20.3606 40.4566 20.9023C40.3315 20.9494 40.3036 20.9574 40.1957 21.0406C40.1599 20.7995 39.8362 19.8474 39.7394 19.612C39.4555 19.6357 39.2659 19.6532 38.9817 19.6192C39.1638 19.5939 39.2688 19.638 39.438 19.5807C39.5071 19.4786 39.4881 19.5144 39.4613 19.3608Z" fill="#301E0E"/>
<path d="M46.0178 21.5024C46.1995 21.5186 46.4203 21.5445 46.5992 21.5522C46.9795 21.5758 47.587 21.6569 47.9232 21.6642C47.963 21.7924 47.9813 21.7741 47.9354 21.8771C47.8265 21.9123 47.7738 21.9087 47.6612 21.9131C47.2573 21.9049 46.8193 21.861 46.4171 21.8189L46.0242 21.7944C45.9658 21.6652 45.9927 21.6683 46.0178 21.5024Z" fill="#242015"/>
<path d="M46.0178 21.5024C46.1995 21.5186 46.4203 21.5445 46.5992 21.5522C46.6264 21.6915 46.6433 21.6619 46.5891 21.7668C46.5307 21.7861 46.4773 21.8049 46.4171 21.8189L46.0242 21.7944C45.9658 21.6652 45.9927 21.6683 46.0178 21.5024Z" fill="#1D1B15"/>
<path d="M44.3729 21.3503C44.883 21.4225 45.473 21.4327 46.0178 21.5025C45.9927 21.6684 45.9658 21.6653 46.0242 21.7945C45.549 21.773 45.1117 21.7019 44.65 21.6827C44.5421 21.7397 44.5697 21.7766 44.5012 21.9185C44.4339 21.6896 44.4102 21.586 44.3729 21.3503Z" fill="#2D260A"/>
<path d="M44.5676 10.4744C44.6686 10.5153 44.717 10.5282 44.7955 10.6078C44.7461 10.8835 44.5203 11.8923 44.5909 12.053C44.6077 12.311 44.7224 12.1797 44.6647 12.2885C44.5453 12.316 44.3672 12.3831 44.284 12.281C44.321 11.785 44.4812 10.9931 44.5676 10.4744Z" fill="#0E120A"/>
<path d="M36.3235 12.0569C36.4131 12.1302 36.4199 12.1089 36.5508 12.1188C36.3955 12.7233 36.192 13.2785 36.0124 13.8703C35.9633 13.7763 35.9127 13.683 35.8611 13.5902C35.9586 13.1471 36.1701 12.4709 36.3235 12.0569Z" fill="#0E120A"/>
<path d="M36.2192 19.3188C36.5669 19.2747 37.0221 19.2985 37.3698 19.3197L37.3375 19.4933C37.4673 19.6576 37.7798 19.5572 38.0153 19.6081C37.5404 19.6318 36.9974 19.587 36.5206 19.6223C36.3636 19.6339 36.2708 19.7912 36.1794 19.9167L36.1282 19.9086C36.1063 19.756 36.1837 19.4801 36.2192 19.3188Z" fill="#3A3009"/>
<path d="M33.8241 20.5564C33.8595 20.636 33.863 20.671 33.8666 20.758C33.9058 20.7427 33.9983 20.703 34.0341 20.6985C33.9197 21.1104 33.7491 21.8434 33.5268 22.18L33.4716 22.126C33.4776 21.7476 33.7133 20.9163 33.8241 20.5564Z" fill="#1D1B15"/>
<path d="M36.6572 10.9448L36.8794 11.0809L36.5507 12.1188C36.4199 12.1089 36.4131 12.1302 36.3235 12.0569C36.4242 11.6831 36.5357 11.3123 36.6572 10.9448Z" fill="#1D1B15"/>
<path d="M40.6072 21.4646C40.6652 21.6417 40.7387 21.8909 40.8111 22.0566C40.842 22.1496 40.8764 22.2955 40.9427 22.356C40.8036 22.4225 40.8387 22.43 40.7032 22.4139C40.514 22.2692 40.4391 21.8217 40.3491 21.5474C40.4767 21.5317 40.4961 21.5203 40.6072 21.4646Z" fill="#242015"/>
<path d="M35.8611 13.5901C35.9127 13.6829 35.9633 13.7763 36.0124 13.8702C35.9317 14.1651 35.8569 14.5082 35.7735 14.7893L35.6995 14.726L35.5816 14.7496L35.5358 14.7107L35.8611 13.5901Z" fill="#1D1B15"/>
<path d="M31.0836 13.3802L31.1401 13.3972C31.1884 13.3806 31.1992 13.3769 31.2408 13.3498L31.2721 13.3291L31.362 13.3682C31.4904 13.5393 31.4773 13.7494 31.3628 13.9244C31.2463 14.0154 31.2093 14.063 31.0755 13.9954C30.9891 13.8444 31.051 13.5503 31.0836 13.3802Z" fill="#F1E12A"/>
<path d="M23.4792 10.3789C23.4809 10.2603 23.4695 10.1914 23.5464 10.0992C23.6564 10.0355 23.6708 10.0278 23.7973 10.0269L23.8809 10.0664C23.8982 10.2235 23.7591 10.3008 23.7159 10.5331L23.6787 10.8292L23.43 10.748L23.4792 10.3789Z" fill="#2F3A49"/>
<path d="M23.4792 10.3789C23.5984 10.4031 23.698 10.3891 23.7159 10.5331L23.6787 10.8292L23.43 10.748L23.4792 10.3789Z" fill="#3E3B3A"/>
<path d="M55.5619 9.08032C55.6791 9.17333 55.8042 9.30052 55.9135 9.40572L55.91 9.88555C55.8078 9.85647 55.7924 9.85044 55.692 9.88092C55.6082 9.98189 55.6315 10.0975 55.6232 10.2369C55.5899 10.0445 55.5734 9.32554 55.5619 9.08032Z" fill="#3E3B3A"/>
<path d="M61.631 12.1474C61.8231 11.9372 61.9335 11.7986 62.202 11.6868L62.26 11.694C62.3074 11.932 61.8618 12.3002 61.7009 12.4774L61.7654 12.2837L61.631 12.1474Z" fill="#3E3B3A"/>
<path d="M38.1189 14.4061C38.1483 14.1868 38.1698 13.9176 38.2537 13.7176L38.3014 13.6919C38.3838 13.812 38.5035 14.3058 38.5526 14.4776C38.3684 14.4248 38.3114 14.419 38.1189 14.4061Z" fill="#1D1B15"/>
<path d="M36.8085 10.4072C36.9278 10.4176 37.0773 10.4077 37.1511 10.4757C37.0859 10.7042 36.9848 10.6764 36.8794 11.081L36.6572 10.9449C36.7414 10.7246 36.7619 10.6339 36.8085 10.4072Z" fill="#2F3A49"/>
<path d="M40.1957 21.0404C40.3036 20.9572 40.3315 20.9493 40.4566 20.9021L40.6072 21.4646C40.4961 21.5203 40.4767 21.5316 40.3491 21.5474L40.1957 21.0404Z" fill="#1D1B15"/>
<path d="M44.5676 10.4743C44.5805 10.3096 44.5866 10.0451 44.8106 10.0489C44.9522 10.2155 44.8507 10.4149 44.7955 10.6077C44.717 10.5282 44.6686 10.5153 44.5676 10.4743Z" fill="#2F3A49"/>
<path d="M59.0975 15.0264C59.1753 15.0986 59.1739 15.1257 59.1915 15.2324C59.0406 15.3557 58.8943 15.51 58.7119 15.5466L58.6828 15.5084C58.7656 15.2896 58.9219 15.1841 59.0975 15.0264Z" fill="#1D1B15"/>
<path d="M32.455 14.8773C32.5615 14.7269 32.6597 14.551 32.8414 14.5166C32.8892 14.6749 32.708 14.8727 32.6144 15.0026L32.455 14.8773Z" fill="#1D1B15"/>
<path d="M43.7611 19.2299C43.9174 19.1798 43.9575 19.1448 44.0912 19.0474L44.2346 19.1812L44.0614 19.3113C43.9536 19.3993 43.9328 19.4148 43.812 19.4221C43.7439 19.3388 43.7654 19.3637 43.7611 19.2299Z" fill="#1D1B15"/>
<path d="M44.0614 19.3111C43.9536 19.3991 43.9328 19.4146 43.812 19.422C43.7439 19.3386 43.7654 19.3635 43.7611 19.2297C43.9091 19.2386 43.9539 19.2154 44.0614 19.3111Z" fill="#1D1B15"/>
<path d="M58.2828 18.4199C58.29 18.5483 58.3122 18.6576 58.2402 18.7612L58.1685 18.791L58.128 18.7528C58.1305 18.6355 58.1179 18.6818 58.1832 18.5773C58.2384 18.5235 58.2484 18.4902 58.2828 18.4199Z" fill="#1D1B15"/>
<path d="M29.4491 3.88756L29.61 3.87964C29.7339 4.0189 29.7012 4.55205 29.7054 4.76687C28.7837 4.77178 27.8679 4.96368 26.9556 5.07348C21.4219 5.73937 14.3536 7.62211 9.58274 10.4974C8.82952 10.9514 8.09175 11.4916 7.40412 12.0381C6.06822 13.1 4.8114 14.5121 4.61512 16.2773C4.47192 17.5655 5.04893 18.6804 5.83291 19.6575C6.6662 20.6961 7.72811 21.4816 8.83454 22.203C10.7003 23.4196 12.6825 24.3164 14.7663 25.0894C15.274 25.2777 15.7795 25.4827 16.2957 25.646C17.1639 25.9205 18.0515 26.148 18.9319 26.3793C19.4234 26.5085 19.9104 26.6662 20.4055 26.7798C21.5239 27.0364 22.6529 27.239 23.7805 27.4483C24.944 27.6643 26.0986 27.8861 27.2764 28.0167L27.2681 28.9043C27.0369 28.8904 26.8193 28.8648 26.5895 28.8384C20.0694 28.0704 11.511 25.8692 6.36834 21.6352C5.26762 20.7359 4.4926 19.7023 3.92645 18.419C2.15452 14.4025 6.44677 11.1417 9.64848 9.39818C15.5123 6.20503 22.7724 4.44007 29.4491 3.88756Z" fill="#C1F0F6"/>
<path d="M43.8851 3.85986C44.5722 3.90415 45.3507 3.94563 46.0303 4.01749C47.768 4.2143 49.4957 4.49101 51.208 4.84677C56.443 5.90063 62.288 7.66698 66.6204 10.9221C68.2119 12.1175 69.9313 13.9891 70.1826 16.0289C70.3604 17.4729 69.8234 18.8896 68.9044 20.0202C66.0448 23.4864 61.5299 25.3133 57.3656 26.6766C54.94 27.4707 52.2854 27.9603 49.7886 28.504C49.1136 28.6509 48.1365 28.7154 47.4257 28.8054L46.6745 28.8997C46.6529 28.601 46.6221 28.303 46.5823 28.0063C47.7139 27.9544 48.8419 27.6692 49.9531 27.4701C51.0528 27.273 52.1654 27.0747 53.2536 26.8211C53.6661 26.725 54.0712 26.5952 54.4809 26.4888C55.0766 26.3343 55.6784 26.204 56.2688 26.0302C56.9383 25.8332 57.5903 25.59 58.2484 25.3596C61.2313 24.3155 64.277 23.0098 66.6814 20.9076C67.8223 19.9099 69.066 18.4626 69.1678 16.8763C69.2596 15.444 68.5725 14.2204 67.6481 13.1736C63.8501 8.87323 55.5246 6.6042 50.038 5.56483C49.505 5.46386 48.9742 5.34213 48.4387 5.25726C47.8283 5.16062 47.2103 5.11408 46.5977 5.03577C45.6873 4.91938 44.7902 4.75591 43.8722 4.70005C43.908 4.38849 43.8966 4.17533 43.8851 3.85986Z" fill="#C1F0F6"/>
<path d="M37.1608 2.5185C37.7304 2.4823 38.158 2.48669 38.7214 2.50907C38.6612 3.1675 38.5107 5.25694 38.7408 5.81279L38.7039 5.8598C38.2766 5.90752 37.677 5.87055 37.2364 5.84692C37.2963 5.47979 37.2798 5.0545 37.2705 4.68059C36.8905 4.65129 36.5027 4.6641 36.1213 4.67001C36.1493 5.05794 36.1963 5.44429 36.2618 5.82767C35.7646 5.84958 35.2262 5.84076 34.7248 5.84069C34.7677 4.79938 34.7372 3.54363 34.7271 2.49013C35.2112 2.48227 35.6955 2.49423 36.1787 2.52598C36.1206 2.96252 36.102 3.33808 36.0873 3.77375L37.2056 3.77185C37.2189 3.32748 37.2311 2.9579 37.1608 2.5185Z" fill="#C1F0F6"/>
<path fill-rule="evenodd" clip-rule="evenodd" d="M40.8004 26.8396C41.7027 26.8379 42.2046 27.1065 42.1803 28.0408C41.8182 28.6001 41.1363 28.747 42.2213 29.2342C42.226 29.5937 42.2528 29.9796 42.2711 30.3406C41.9459 30.3526 41.1866 30.3818 40.9059 30.3035C40.8813 30.2588 40.9033 29.8339 40.8883 29.6873C40.8764 29.3772 40.5705 28.8897 40.2907 29.1277C40.2573 29.2115 40.3397 29.9273 40.3619 30.0447L40.3746 30.2195C40.26 30.3007 39.2306 30.2374 39.0211 30.2302C39.0731 29.1656 39.0297 27.9605 38.986 26.8953C39.5537 26.8154 40.2226 26.8407 40.8004 26.8396ZM40.0944 27.6492C40.0879 27.8557 40.0904 28.0562 40.1051 28.2625C40.381 28.2411 40.7282 28.2493 40.9811 28.1345C41.0562 28.0566 41.1035 28.0093 41.1139 27.8953C41.0792 27.8039 41.0487 27.7573 40.9528 27.7176C40.6944 27.6108 40.3684 27.6398 40.0944 27.6492Z" fill="#C1F0F6"/>
<path fill-rule="evenodd" clip-rule="evenodd" d="M36.4814 26.8676C36.8799 26.8256 37.5813 26.8321 37.8926 27.0668C39.1241 27.9971 38.8615 29.7947 37.3047 30.1303C36.7534 30.1806 36.1559 30.2002 35.6797 29.8734C35.3515 29.6472 35.1309 29.2957 35.0693 28.9017C34.889 27.8162 35.3746 27.0445 36.4814 26.8676ZM37.2412 27.8998C36.0727 26.5986 35.8094 30.0557 37.0176 29.3148C37.6382 29.0739 37.7089 28.3231 37.2412 27.8998Z" fill="#C1F0F6"/>
<path d="M39.2136 2.5263C40.3247 2.49723 41.4366 2.495 42.5478 2.51961L42.5105 3.37987C41.947 3.34341 41.1509 3.30808 40.5785 3.3468C40.5158 3.35104 40.514 3.38302 40.4796 3.44138C40.4728 3.57548 40.4914 3.6111 40.5355 3.73671C41.1215 3.72839 41.7079 3.73621 42.294 3.76016L42.3098 4.62584C41.7979 4.5509 41.2 4.63606 40.7265 4.59206C40.6968 4.60167 40.6448 4.62939 40.6144 4.64427C40.5685 4.74947 40.5699 4.89268 40.6337 4.98817C40.9602 5.05984 42.322 5.02485 42.7438 5.02151L42.741 5.84492C41.6986 5.8413 40.2928 5.77977 39.2957 5.83814C39.3781 5.09688 39.2996 3.2712 39.2136 2.5263Z" fill="#C1F0F6"/>
<path d="M29.415 26.8285C30.0647 26.7799 31.1663 26.8033 31.3832 27.6295C31.438 27.8387 31.3185 28.0746 31.0781 28.0973C30.6509 28.1375 30.4634 27.8429 30.1575 27.616C29.9447 27.5992 29.5508 27.5336 29.5286 27.8283C29.6712 28.0835 30.9179 28.2991 31.2514 28.6629C32.1282 29.6193 30.9095 30.312 30.0163 30.3495C29.72 30.3437 29.3274 30.3203 29.0506 30.2268C28.7311 30.1154 28.4687 29.882 28.3208 29.5776C28.1429 29.2091 28.2073 28.9577 28.5922 28.8044C28.7579 28.8348 28.8866 28.8511 29.0736 28.9476C29.468 29.151 29.8914 29.8926 30.3629 29.3845C30.4353 29.3064 30.4261 29.2783 30.4122 29.1846C30.197 28.9314 29.2825 28.8753 28.8775 28.578C28.0003 27.9338 28.3677 27.0188 29.415 26.8285Z" fill="#C1F0F6"/>
<path d="M43.3561 26.9451C44.0403 26.9242 44.7289 26.9379 45.4135 26.936C45.4092 27.2092 45.4214 27.4838 45.4275 27.7569C44.8884 27.756 44.2281 27.6639 43.7059 27.7787L43.6693 27.8382C43.6665 27.9193 43.6607 27.9812 43.6959 28.0558C43.9686 28.2261 44.7851 28.1654 45.1378 28.1694C45.1558 28.459 45.1715 28.7343 45.2371 29.018C44.9088 29.0158 44.0987 28.9328 43.827 29.0619C43.7704 29.089 43.7708 29.1303 43.7507 29.1869C43.7604 29.2583 43.7733 29.2955 43.8152 29.3544C44.3833 29.3658 44.9515 29.3664 45.5196 29.3563C45.5138 29.6489 45.5289 29.9436 45.5364 30.2362C44.5808 30.1843 43.6145 30.2232 42.656 30.1864C42.6517 29.1123 42.6489 28.041 42.6098 26.9675L43.3561 26.9451Z" fill="#C1F0F6"/>
<path d="M31.1633 2.52947C32.1694 2.47829 33.4304 2.51019 34.4482 2.51156C34.4535 2.79351 34.4635 3.07536 34.4781 3.35698C34.0196 3.33237 33.6117 3.35231 33.1564 3.37544C33.1723 4.02242 33.1957 4.66919 33.2264 5.31561C33.2243 5.53129 33.2705 5.60078 33.3661 5.78899L33.3231 5.83427C32.8557 5.86665 32.2411 5.84973 31.7611 5.84768C31.8777 5.50361 31.8801 3.84493 31.9011 3.34928C31.5197 3.34108 31.1222 3.33972 30.744 3.29946C30.7168 3.08111 30.7208 2.76888 30.7179 2.54039L31.1633 2.52947Z" fill="#C1F0F6"/>
<path d="M32.2318 26.9445C33.1062 26.9282 33.981 26.9361 34.8551 26.9682C34.8723 27.2298 34.8648 27.4967 34.8667 27.7591C34.5009 27.7509 34.1342 27.7563 33.7682 27.7572C33.8533 28.3564 33.8237 29.0044 33.8381 29.6109L33.8386 30.1901C33.4451 30.2003 33.0513 30.1969 32.658 30.1799L32.6659 27.7253C32.3509 27.7285 32.0352 27.7437 31.7203 27.7533C31.6845 27.4935 31.6624 27.2333 31.6408 26.9719L32.2318 26.9445Z" fill="#C1F0F6"/>
<path d="M15.1666 8.54248C15.6204 8.57084 16.0591 8.61032 16.5112 8.63997C17.2395 8.68777 17.9596 8.50695 18.6568 8.77167C18.7804 8.81861 18.7577 8.83241 18.8188 8.96551C18.6725 9.00822 18.3943 8.92661 18.2192 8.92313C17.9519 8.91786 17.193 8.9867 16.974 8.88211L16.9878 8.8464L17.2447 8.79892L17.2466 8.76977C17.0746 8.71291 16.9869 8.85257 16.7441 8.7825C16.5438 8.7886 16.0694 8.85343 15.8816 8.828C15.6466 8.79616 15.3564 8.6276 15.0631 8.66816C14.8797 8.69354 14.7787 8.87867 14.6487 8.93095C14.4448 9.01295 14.0977 9.04802 13.8744 9.0454C13.634 9.04261 13.2132 9.34473 13.0374 9.30177L13.0415 9.2363C13.1927 9.11184 14.9052 8.58138 15.1666 8.54248Z" fill="#0F5066"/>
<path d="M32.0726 17.7798L32.2528 17.9894L32.1639 18.0323L32.1285 18.0324L32.0154 17.8561L32.0726 17.7798Z" fill="#0E120A"/>
</svg>
